<svg width="65" height="64" viewBox="0 0 65 64" fill="none" xmlns="http://www.w3.org/2000/svg">
<path d="M24.5 32H24.5267" stroke="#DA966E" stroke-width="4" stroke-linecap="round" stroke-linejoin="round"/>
<path d="M40.5 32H40.5267" stroke="#DA966E" stroke-width="4" stroke-linecap="round" stroke-linejoin="round"/>
<path d="M27.1665 42.667C28.4998 43.467 30.3665 44.0003 32.4998 44.0003C34.6332 44.0003 36.4998 43.467 37.8332 42.667" stroke="#DA966E" stroke-width="4" stroke-linecap="round" stroke-linejoin="round"/>
<path d="M51.1668 16.8C53.5828 19.8285 55.2297 23.3967 55.9668 27.2C56.8685 27.6367 57.629 28.3186 58.1611 29.1675C58.6932 30.0165 58.9754 30.9981 58.9754 32C58.9754 33.0019 58.6932 33.9835 58.1611 34.8325C57.629 35.6814 56.8685 36.3633 55.9668 36.8C54.8156 42.1693 51.8579 46.9814 47.5873 50.4334C43.3167 53.8854 37.9915 55.7685 32.5002 55.7685C27.0088 55.7685 21.6836 53.8854 17.413 50.4334C13.1424 46.9814 10.1847 42.1693 9.03349 36.8C8.13178 36.3633 7.37131 35.6814 6.83922 34.8325C6.30712 33.9835 6.0249 33.0019 6.0249 32C6.0249 30.9981 6.30712 30.0165 6.83922 29.1675C7.37131 28.3186 8.13178 27.6367 9.03349 27.2C10.1382 21.788 13.0759 16.9227 17.3509 13.425C21.6259 9.92723 26.9766 8.01115 32.5002 8C37.8335 8 41.8335 10.9333 41.8335 14.6667C41.8335 18.4 39.4335 21.3333 36.5002 21.3333C34.3668 21.3333 32.5002 20.2667 32.5002 18.6667" stroke="#DA966E" stroke-width="4" stroke-linecap="round" stroke-linejoin="round"/>
</svg>
