<svg width="64" height="65" viewBox="0 0 64 65" fill="none" xmlns="http://www.w3.org/2000/svg">
<path d="M37.3335 43.3333H24.0002M50.6668 43.3333H58.6668V34.9333C58.6687 34.2987 58.4441 33.6842 58.0335 33.2003C57.623 32.7164 57.0533 32.3948 56.4268 32.2933L42.6668 29.9999L35.4668 20.3999C35.2184 20.0687 34.8963 19.7999 34.5261 19.6148C34.1558 19.4296 33.7475 19.3333 33.3335 19.3333H13.9735C12.9796 19.3263 12.0034 19.5973 11.1553 20.1156C10.3072 20.6339 9.62076 21.3789 9.1735 22.2666L7.04016 26.6133C5.92055 28.8389 5.33614 31.2952 5.3335 33.7866V43.3333H10.6668" stroke="#DA966E" stroke-width="4" stroke-linecap="round" stroke-linejoin="round"/>
<path d="M17.3332 51.3333C21.0151 51.3333 23.9998 48.3486 23.9998 44.6667C23.9998 40.9848 21.0151 38 17.3332 38C13.6513 38 10.6665 40.9848 10.6665 44.6667C10.6665 48.3486 13.6513 51.3333 17.3332 51.3333Z" stroke="#DA966E" stroke-width="4" stroke-linecap="round" stroke-linejoin="round"/>
<path d="M44.0002 51.3333C47.6821 51.3333 50.6668 48.3486 50.6668 44.6667C50.6668 40.9848 47.6821 38 44.0002 38C40.3183 38 37.3335 40.9848 37.3335 44.6667C37.3335 48.3486 40.3183 51.3333 44.0002 51.3333Z" stroke="#DA966E" stroke-width="4" stroke-linecap="round" stroke-linejoin="round"/>
</svg>
