<svg width="64" height="64" viewBox="0 0 64 64" fill="none" xmlns="http://www.w3.org/2000/svg">
<path d="M21.3335 37.333C30.1701 37.333 37.3335 30.1696 37.3335 21.333C37.3335 12.4965 30.1701 5.33301 21.3335 5.33301C12.4969 5.33301 5.3335 12.4965 5.3335 21.333C5.3335 30.1696 12.4969 37.333 21.3335 37.333Z" stroke="#DA966E" stroke-width="4" stroke-linecap="round" stroke-linejoin="round"/>
<path d="M48.2399 27.6533C50.7607 28.5931 53.0039 30.1534 54.7619 32.1898C56.5199 34.2263 57.7361 36.6732 58.2979 39.3042C58.8597 41.9352 58.749 44.6654 57.976 47.2422C57.2031 49.8191 55.7928 52.1595 53.8757 54.0469C51.9586 55.9344 49.5965 57.3079 47.0079 58.0406C44.4192 58.7732 41.6876 58.8413 39.0657 58.2385C36.4438 57.6358 34.0162 56.3816 32.0075 54.592C29.9987 52.8024 28.4736 50.5352 27.5732 48" stroke="#DA966E" stroke-width="4" stroke-linecap="round" stroke-linejoin="round"/>
<path d="M18.6665 16H21.3332V26.6667" stroke="#DA966E" stroke-width="4" stroke-linecap="round" stroke-linejoin="round"/>
<path d="M44.5601 37.0137L46.4267 38.907L38.9067 46.427" stroke="#DA966E" stroke-width="4" stroke-linecap="round" stroke-linejoin="round"/>
</svg>
