<svg width="64" height="64" viewBox="0 0 64 64" fill="none" xmlns="http://www.w3.org/2000/svg">
<path d="M32 5.33325V18.6666" stroke="#DA966E" stroke-width="4" stroke-linecap="round" stroke-linejoin="round"/>
<path d="M16.0002 18.6665H48.0002L58.6668 42.6665H5.3335L16.0002 18.6665Z" stroke="#DA966E" stroke-width="4" stroke-linecap="round" stroke-linejoin="round"/>
<path d="M24.4533 42.6665C24.029 43.8728 23.9 45.1633 24.0772 46.4297C24.2543 47.6962 24.7325 48.9017 25.4717 49.9452C26.2108 50.9888 27.1893 51.8399 28.3252 52.4273C29.4611 53.0147 30.7212 53.3213 32 53.3213C33.2788 53.3213 34.5389 53.0147 35.6748 52.4273C36.8107 51.8399 37.7892 50.9888 38.5283 49.9452C39.2675 48.9017 39.7457 47.6962 39.9228 46.4297C40.1 45.1633 39.971 43.8728 39.5467 42.6665" stroke="#DA966E" stroke-width="4" stroke-linecap="round" stroke-linejoin="round"/>
</svg>
