<svg width="44" height="50" viewBox="0 0 44 50" fill="none" xmlns="http://www.w3.org/2000/svg">
<rect width="44" height="50" fill="#1E1E1E"/>
<g id="Frame 31" clip-path="url(#clip0_0_1)">
<rect width="2000" height="9491" transform="translate(-50 -50)" fill="#F7F7F7"/>
<g id="Frame 37">
<rect x="-30" y="-30" width="1960" height="110" rx="30" fill="white"/>
<g id="Frame 31_2">
<g id="Frame 41">
<g id="Frame 30">
<g id="Frame 29">
<path id="Vector" fill-rule="evenodd" clip-rule="evenodd" d="M0.746055 20.8594C0.252367 22.1841 0 23.5869 0 25.0007C0 31.5586 5.3167 36.8742 11.8749 36.8742C14.9891 36.8742 17.8229 35.6744 19.9413 33.7125V40.4793V44.2876V46.1917V50H28.0077V46.1917H23.7497V44.2876H25.6514V40.4793H23.7497V25.0007H23.7489V24.9999H23.7497C23.7497 20.5459 27.361 16.9347 31.8161 16.9347C36.2703 16.9347 39.8817 20.5459 39.8817 25.0007C39.8817 26.8743 39.1441 28.6977 37.9511 30.1422C37.6571 26.9737 34.9983 24.5513 31.8161 24.5513C28.413 24.5513 25.6539 27.3093 25.6539 30.7123C25.6539 34.382 28.3424 36.5844 31.8161 36.8742C38.3743 36.8742 43.6901 31.5586 43.6901 25.0007C43.6901 18.4429 38.3743 13.1265 31.8161 13.1265C27.6355 13.1265 23.9604 15.2864 21.8446 18.5508C19.8775 15.5098 16.731 14.853 15.8745 11.4985C15.4581 9.86797 15.7079 8.07514 16.7098 6.56442C17.2281 5.78356 17.9172 5.13101 18.7262 4.65604C18.1951 5.83284 18.2418 7.23481 18.4984 8.49998C19.1731 11.8358 22.425 13.9923 25.7601 13.3168C29.0961 12.6422 31.2527 9.39045 30.5772 6.05546C30.369 5.0248 29.9 4.06466 29.216 3.26681C28.6628 2.65844 28.0408 2.1172 27.3559 1.66262C22.7674 -1.38093 16.5798 -0.128503 13.5361 4.45976C11.9462 6.85586 11.5273 9.69039 12.1468 12.2862C13.6933 18.7768 19.9404 18.2237 19.9404 25.0007C19.9404 29.4548 16.3291 33.0659 11.8749 33.0659C10.3445 33.0659 8.91103 32.528 7.6186 31.709C11.2291 32.0174 14.6016 29.8804 15.8651 26.4851C17.4184 22.3107 15.2933 17.6663 11.1186 16.1131C6.94307 14.559 2.29935 16.6841 0.746055 20.8594ZM31.8161 33.0667C30.5152 33.0667 29.4615 32.0131 29.4615 30.7123C29.4615 29.4123 30.5152 28.3587 31.8161 28.3587C33.1162 28.3587 34.1698 29.4123 34.1698 30.7123C34.1698 32.0123 33.1162 33.0667 31.8161 33.0667ZM25.0047 9.58502C23.7302 9.84333 22.4879 9.01914 22.2304 7.74462C21.9721 6.4701 22.7963 5.22787 24.0709 4.97042C25.3455 4.71212 26.5869 5.5363 26.8452 6.81082C27.1035 8.08534 26.2793 9.32672 25.0047 9.58502ZM9.79049 19.6818C7.58631 18.8618 5.13486 19.9834 4.31488 22.1875C3.4949 24.3915 4.61653 26.8428 6.81986 27.6628C9.02404 28.4827 11.4755 27.3612 12.2955 25.1571C13.1154 22.953 11.9938 20.5017 9.79049 19.6818Z" fill="#DA966E"/>
<path id="Vector_2" fill-rule="evenodd" clip-rule="evenodd" d="M23.7491 25.0008V24.9999H23.7499C23.7499 20.5459 27.3612 16.9348 31.8163 16.9348V13.1265C27.6366 13.1265 23.9615 15.2864 21.8457 18.55C23.0498 20.4074 23.7491 22.6217 23.7491 25.0008Z" fill="#DA966E"/>
<path id="Vector_3" fill-rule="evenodd" clip-rule="evenodd" d="M19.9395 33.7142L19.9412 33.7125V40.4793H23.7496V25.0007H23.7488C23.7488 28.4445 22.2821 31.545 19.9395 33.7142Z" fill="#DA966E"/>
<path id="Vector_4" fill-rule="evenodd" clip-rule="evenodd" d="M31.8159 33.0659C36.2702 33.0659 39.8815 29.4547 39.8815 25.0007H43.6899C43.6899 31.5586 38.3741 36.8741 31.8159 36.8741V33.0659Z" fill="#DA966E"/>
<path id="Vector_5" fill-rule="evenodd" clip-rule="evenodd" d="M27.3559 1.66262C22.7674 -1.38093 16.5798 -0.128503 13.5361 4.45976C12.4144 6.15062 11.8766 8.059 11.874 9.94699H15.6825C15.6859 8.78293 16.0181 7.60697 16.7098 6.56442C18.3769 4.05107 21.5702 3.15805 24.2494 4.29662L28.0034 2.12994C27.7952 1.9668 27.5794 1.81131 27.3559 1.66262Z" fill="#DA966E"/>
<path id="Vector_6" fill-rule="evenodd" clip-rule="evenodd" d="M25.76 13.3168C22.4249 13.9923 19.173 11.8358 18.4983 8.49999C17.8228 5.16501 19.9794 1.91328 23.3154 1.23864C26.6505 0.563145 29.9024 2.71963 30.5771 6.05547C31.2526 9.39046 29.096 12.6422 25.76 13.3168ZM25.0046 9.58503C23.7301 9.84334 22.4878 9.01915 22.2303 7.74463C21.972 6.47011 22.7962 5.22788 24.0708 4.97043C25.3454 4.71213 26.5868 5.53632 26.8451 6.81083C27.1034 8.08535 26.2792 9.32673 25.0046 9.58503Z" fill="#DA966E"/>
<path id="Vector_7" fill-rule="evenodd" clip-rule="evenodd" d="M31.816 36.8742C28.4129 36.8742 25.6538 34.1153 25.6538 30.7123C25.6538 27.3093 28.4129 24.5513 31.816 24.5513C35.2191 24.5513 37.9773 27.3093 37.9773 30.7123C37.9773 34.1153 35.2191 36.8742 31.816 36.8742ZM31.816 33.0668C30.5151 33.0668 29.4614 32.0131 29.4614 30.7123C29.4614 29.4123 30.5151 28.3587 31.816 28.3587C33.1161 28.3587 34.1697 29.4123 34.1697 30.7123C34.1697 32.0123 33.1161 33.0668 31.816 33.0668Z" fill="#DA966E"/>
<path id="Vector_8" fill-rule="evenodd" clip-rule="evenodd" d="M3.80845 25.0007C3.80845 29.4547 7.41976 33.0659 11.8749 33.0659V36.8741C5.3167 36.8741 0 31.5586 0 25.0007H3.80845Z" fill="#DA966E"/>
<path id="Vector_9" fill-rule="evenodd" clip-rule="evenodd" d="M11.1187 16.1131C6.94313 14.559 2.2994 16.6841 0.745265 20.8594C-0.808026 25.0339 1.31713 29.6782 5.49181 31.2314C9.66734 32.7855 14.3111 30.6605 15.8652 26.4851C17.4185 22.3107 15.2933 17.6663 11.1187 16.1131ZM9.79055 19.6818C7.58637 18.8618 5.13492 19.9834 4.31494 22.1875C3.49496 24.3915 4.61659 26.8429 6.81992 27.6628C9.0241 28.4827 11.4755 27.3612 12.2955 25.1571C13.1155 22.953 11.9939 20.5017 9.79055 19.6818Z" fill="#DA966E"/>
</g>
</g>
</g>
</g>
</g>
</g>
<defs>
<clipPath id="clip0_0_1">
<rect width="2000" height="9491" fill="white" transform="translate(-50 -50)"/>
</clipPath>
</defs>
</svg>
