<svg width="64" height="65" viewBox="0 0 64 65" fill="none" xmlns="http://www.w3.org/2000/svg">
<path d="M11.9998 44.6666C7.99984 48.0266 6.6665 58 6.6665 58C6.6665 58 16.6398 56.6666 19.9998 52.6666C21.8932 50.4266 21.8665 46.9866 19.7598 44.9066C18.7233 43.9173 17.358 43.3457 15.9258 43.3014C14.4936 43.2571 13.0955 43.7433 11.9998 44.6666Z" stroke="#DA966E" stroke-width="4" stroke-linecap="round" stroke-linejoin="round"/>
<path d="M32 40.6666L24 32.6666C25.4191 28.9851 27.2059 25.4561 29.3333 22.1333C32.4405 17.1652 36.767 13.0747 41.9013 10.2508C47.0357 7.42695 52.8071 5.96358 58.6667 5.99993C58.6667 13.2533 56.5867 25.9999 42.6667 35.3333C39.2984 37.4632 35.7249 39.2499 32 40.6666Z" stroke="#DA966E" stroke-width="4" stroke-linecap="round" stroke-linejoin="round"/>
<path d="M23.9998 32.6666H10.6665C10.6665 32.6666 12.1332 24.5866 15.9998 22C20.3198 19.12 29.3332 22 29.3332 22" stroke="#DA966E" stroke-width="4" stroke-linecap="round" stroke-linejoin="round"/>
<path d="M32 40.6666V53.9999C32 53.9999 40.08 52.5333 42.6667 48.6666C45.5467 44.3466 42.6667 35.3333 42.6667 35.3333" stroke="#DA966E" stroke-width="4" stroke-linecap="round" stroke-linejoin="round"/>
</svg>
