<svg width="64" height="65" viewBox="0 0 64 65" fill="none" xmlns="http://www.w3.org/2000/svg">
<path d="M26.6666 27.3333V27.8666C28.4155 28.5391 29.8728 29.8042 30.7844 31.4412C31.696 33.0782 32.0042 34.9833 31.655 36.8242C31.3059 38.6651 30.3216 40.325 28.8739 41.5146C27.4262 42.7041 25.6069 43.3477 23.7333 43.3333H13.3333C11.482 43.2872 9.70401 42.6003 8.30261 41.3897C6.90122 40.1792 5.9632 38.5199 5.64856 36.695C5.33392 34.87 5.66213 32.9925 6.57723 31.3825C7.49233 29.7726 8.93762 28.5299 10.6666 27.8666V27.3333C10.6666 25.2115 11.5095 23.1767 13.0097 21.6764C14.51 20.1761 16.5449 19.3333 18.6666 19.3333C20.7883 19.3333 22.8232 20.1761 24.3235 21.6764C25.8237 23.1767 26.6666 25.2115 26.6666 27.3333Z" stroke="#DA966E" stroke-width="4" stroke-linecap="round" stroke-linejoin="round"/>
<path d="M18.6665 43.3333V59.3333" stroke="#DA966E" stroke-width="4" stroke-linecap="round" stroke-linejoin="round"/>
<path d="M34.6665 51.3333V59.3333" stroke="#DA966E" stroke-width="4" stroke-linecap="round" stroke-linejoin="round"/>
<path d="M31.9998 51.3333H54.1331C54.655 51.326 55.1633 51.1656 55.595 50.8721C56.0267 50.5786 56.3627 50.1649 56.5615 49.6822C56.7602 49.1996 56.8129 48.6692 56.7131 48.1568C56.6132 47.6445 56.3652 47.1727 55.9998 46.8L47.9998 38H48.7998C49.3217 37.9926 49.83 37.8323 50.2617 37.5388C50.6933 37.2453 51.0294 36.8316 51.2281 36.3489C51.4269 35.8662 51.4796 35.3358 51.3797 34.8235C51.2799 34.3111 51.0319 33.8394 50.6664 33.4666L42.6664 24.6666H43.1998C43.7444 24.7158 44.2911 24.5962 44.7655 24.3243C45.24 24.0523 45.6193 23.641 45.8522 23.1462C46.0851 22.6514 46.1602 22.0969 46.0673 21.558C45.9744 21.019 45.7181 20.5217 45.3331 20.1333L34.6664 8.66663L30.9331 12.6666" stroke="#DA966E" stroke-width="4" stroke-linecap="round" stroke-linejoin="round"/>
</svg>
